<?xml version="1.0" encoding="utf-8"?>
<!-- Generator: Adobe Illustrator 16.0.0, SVG Export Plug-In . SVG Version: 6.00 Build 0)  -->
<!DOCTYPE svg PUBLIC "-//W3C//DTD SVG 1.1//EN" "http://www.w3.org/Graphics/SVG/1.1/DTD/svg11.dtd">
<svg version="1.1" id="Layer_1" xmlns="http://www.w3.org/2000/svg" xmlns:xlink="http://www.w3.org/1999/xlink" x="0px" y="0px"
	 width="800px" height="800px" viewBox="0 0 800 800" enable-background="new 0 0 800 800" xml:space="preserve">
<radialGradient id="SVGID_1_" cx="399.9971" cy="399.998" r="543.116" gradientTransform="matrix(0.4375 0 0 0.4475 4.882813e-004 4.882813e-004)" gradientUnits="userSpaceOnUse">
	<stop  offset="0" style="stop-color:#FFFFFF"/>
	<stop  offset="1" style="stop-color:#E5E4E5"/>
</radialGradient>
<rect fill="url(#SVGID_1_)" width="350" height="358"/>
<g>
	<g display="none">
		<path display="inline" fill="#58595B" d="M-78.506,433.339v-62.486c0-2.027,0.709-3.752,2.13-5.172
			c1.419-1.422,3.144-2.13,5.172-2.13h43.416v11.969h-36.518v15.012h27.185v4.667c0,2.029-0.71,3.754-2.13,5.174
			c-1.42,1.42-3.145,2.131-5.173,2.131h-19.882v17.851h36.518v12.985H-78.506z"/>
		<path display="inline" fill="#58595B" d="M24.311,379.374v31.648c0,9.605-2.504,15.894-7.506,18.867
			c-5.006,2.977-10.483,4.463-16.433,4.463c-5.818-0.272-11.126-1.892-15.926-4.869c-4.803-2.973-7.202-9.13-7.202-18.461v-31.648
			h14.201v34.489c0,3.245,0.944,5.612,2.84,7.101c1.892,1.489,4.057,2.231,6.491,2.231c2.436,0,4.632-0.742,6.594-2.231
			c1.958-1.488,2.941-3.855,2.941-7.101v-27.591c0-1.894,0.641-3.517,1.927-4.871c1.284-1.349,2.941-2.027,4.97-2.027H24.311z"/>
		<path display="inline" fill="#58595B" d="M29.139,433.339v-26.172c0-5.274,0.777-9.702,2.333-13.287
			c1.553-3.583,3.683-6.457,6.391-8.623c2.567-2.027,5.579-3.515,9.027-4.463c3.449-0.943,7-1.42,10.651-1.42
			c0.269,0,0.608,0,1.014,0c0.406,0,0.742,0,1.015,0v14.404h-4.666c-3.925,0-6.832,0.948-8.724,2.84
			c-1.896,1.896-2.84,4.868-2.84,8.928v27.793H29.139z"/>
		<path display="inline" fill="#58595B" d="M62.369,415.485h13.795c0.134,2.707,1.147,4.736,3.043,6.086
			c2.029,1.354,4.732,2.029,8.115,2.029c2.435,0,4.53-0.472,6.29-1.419c1.623-0.946,2.434-2.233,2.434-3.855
			c0-2.436-2.84-4.261-8.521-5.479c-2.435-0.406-4.26-0.812-5.478-1.218c-7.17-1.755-11.969-3.853-14.403-6.288
			c-2.708-2.434-4.058-5.681-4.058-9.737c0-5.139,1.959-9.399,5.883-12.781c4.057-3.111,9.332-4.667,15.824-4.667
			c7.031,0,12.645,1.556,16.838,4.667c3.921,3.382,6.016,7.778,6.29,13.187h-8.724c-2.572,0-4.533-1.147-5.884-3.449
			c-0.542-0.539-1.084-1.081-1.623-1.623c-1.624-1.218-3.855-1.825-6.695-1.825c-2.708,0-4.736,0.405-6.086,1.217
			c-1.216,0.813-1.825,2.027-1.825,3.651c0,2.166,3.515,3.991,10.549,5.479c0.812,0.272,1.522,0.475,2.131,0.608
			c0.609,0.136,1.183,0.204,1.725,0.204c6.897,1.757,11.697,3.786,14.403,6.084c2.568,2.436,3.855,5.681,3.855,9.739
			c0,5.953-2.164,10.55-6.492,13.795c-4.057,2.977-10.143,4.463-18.258,4.463c-7.709,0-13.459-1.554-17.245-4.665
			c-3.924-3.111-5.883-7.64-5.883-13.593V415.485z"/>
		<path display="inline" fill="#58595B" d="M203.283,409.196c-0.676,8.114-3.722,14.475-9.128,19.069
			c-5.547,4.465-12.853,6.696-21.91,6.696c-10.55,0-18.599-3.177-24.143-9.535c-5.546-6.087-8.318-15.08-8.318-26.983
			c0-12.171,2.84-21.301,8.521-27.387c5.814-6.356,14.201-9.536,25.158-9.536c8.924,0,16.027,2.231,21.303,6.694
			c5.002,4.331,7.842,10.418,8.518,18.26h-8.725c-3.242,0-5.546-1.42-6.894-4.261c-0.947-1.756-2.102-3.312-3.449-4.665
			c-2.707-2.029-6.292-3.043-10.753-3.043c-6.224,0-11.025,2.027-14.405,6.086c-3.245,4.058-4.869,10.01-4.869,17.852
			c0,7.576,1.624,13.391,4.869,17.447c3.11,4.195,7.776,6.291,13.997,6.291c4.329,0,7.914-1.082,10.753-3.247
			c2.567-2.03,4.393-5.275,5.477-9.738H203.283z"/>
		<path display="inline" fill="#58595B" d="M215.618,428.47c-2.839-2.436-4.869-5.714-6.087-9.841
			c-1.215-4.122-1.825-8.419-1.825-12.882c0-3.65,0.507-7.304,1.522-10.955c1.014-3.65,2.603-6.693,4.769-9.129
			c3.515-4.058,8.043-6.458,13.592-7.201c5.543-0.742,10.55-0.306,15.013,1.318c5.139,2.027,8.926,5.547,11.36,10.549
			c2.298,4.463,3.449,9.672,3.449,15.62c0,4.331-0.476,8.051-1.422,11.159c-0.947,3.113-2.163,5.751-3.65,7.912
			c-3.245,4.463-7.372,7.236-12.375,8.318c-4.463,1.217-8.961,1.318-13.491,0.305C221.939,432.628,218.323,430.903,215.618,428.47z
			 M225.357,392.763c-2.841,3.113-4.129,7.745-3.854,13.897c0.27,6.157,1.419,10.448,3.449,12.884
			c0.81,1.084,2.231,1.997,4.259,2.738c2.029,0.744,4.09,0.812,6.188,0.202c2.095-0.608,3.955-2.131,5.579-4.563
			c1.624-2.436,2.501-6.356,2.638-11.768c0-4.868-0.779-8.521-2.333-10.955c-1.558-2.436-3.348-3.989-5.375-4.667
			c-2.029-0.674-4.06-0.709-6.087-0.101C227.791,391.038,226.301,391.819,225.357,392.763z"/>
		<path display="inline" fill="#58595B" d="M262.849,363.551h7.304c1.894,0,3.516,0.643,4.869,1.926
			c1.352,1.288,2.029,2.875,2.029,4.769v63.094h-14.202V363.551z"/>
		<path display="inline" fill="#58595B" d="M288.774,428.47c-2.84-2.436-4.869-5.714-6.087-9.841
			c-1.216-4.122-1.825-8.419-1.825-12.882c0-3.65,0.507-7.304,1.522-10.955c1.014-3.65,2.603-6.693,4.768-9.129
			c3.516-4.058,8.044-6.458,13.593-7.201c5.542-0.742,10.549-0.306,15.012,1.318c5.139,2.027,8.926,5.547,11.361,10.549
			c2.297,4.463,3.449,9.672,3.449,15.62c0,4.331-0.477,8.051-1.422,11.159c-0.948,3.113-2.163,5.751-3.651,7.912
			c-3.245,4.463-7.372,7.236-12.374,8.318c-4.463,1.217-8.961,1.318-13.492,0.305C295.095,432.628,291.479,430.903,288.774,428.47z
			 M298.514,392.763c-2.842,3.113-4.129,7.745-3.855,13.897c0.271,6.157,1.42,10.448,3.449,12.884
			c0.81,1.084,2.231,1.997,4.259,2.738c2.03,0.744,4.09,0.812,6.188,0.202c2.096-0.608,3.956-2.131,5.58-4.563
			c1.623-2.436,2.501-6.356,2.637-11.768c0-4.868-0.778-8.521-2.332-10.955c-1.558-2.436-3.349-3.989-5.376-4.667
			c-2.029-0.674-4.059-0.709-6.086-0.101C300.947,391.038,299.457,391.819,298.514,392.763z"/>
		<path display="inline" fill="#58595B" d="M335.396,433.339v-26.172c0-5.274,0.776-9.702,2.332-13.287
			c1.554-3.583,3.685-6.457,6.392-8.623c2.567-2.027,5.58-3.515,9.029-4.463c3.446-0.943,6.997-1.42,10.649-1.42
			c0.271,0,0.608,0,1.014,0c0.406,0,0.742,0,1.014,0v14.404h-4.664c-3.926,0-6.833,0.948-8.724,2.84
			c-1.896,1.896-2.842,4.868-2.842,8.928v27.793H335.396z"/>
		<path display="inline" fill="#58595B" d="M368.626,415.485h13.797c0.132,2.707,1.147,4.736,3.043,6.086
			c2.027,1.354,4.732,2.029,8.114,2.029c2.436,0,4.53-0.472,6.29-1.419c1.622-0.946,2.434-2.233,2.434-3.855
			c0-2.436-2.839-4.261-8.52-5.479c-2.436-0.406-4.262-0.812-5.479-1.218c-7.171-1.755-11.97-3.853-14.405-6.288
			c-2.707-2.434-4.057-5.681-4.057-9.737c0-5.139,1.96-9.399,5.883-12.781c4.059-3.111,9.334-4.667,15.826-4.667
			c7.029,0,12.645,1.556,16.837,4.667c3.921,3.382,6.017,7.778,6.289,13.187h-8.725c-2.568,0-4.532-1.147-5.882-3.449
			c-0.542-0.539-1.084-1.081-1.624-1.623c-1.621-1.218-3.854-1.825-6.694-1.825c-2.707,0-4.734,0.405-6.086,1.217
			c-1.218,0.813-1.825,2.027-1.825,3.651c0,2.166,3.515,3.991,10.549,5.479c0.812,0.272,1.522,0.475,2.131,0.608
			c0.607,0.136,1.183,0.204,1.725,0.204c6.897,1.757,11.696,3.786,14.404,6.084c2.566,2.436,3.854,5.681,3.854,9.739
			c0,5.953-2.165,10.55-6.492,13.795c-4.06,2.977-10.144,4.463-18.26,4.463c-7.71,0-13.458-1.554-17.243-4.665
			c-3.925-3.111-5.885-7.64-5.885-13.593V415.485z"/>
	</g>
	<g display="none">
		<path display="inline" fill="#58595B" d="M-21.364,451.795c1.83-0.386,4.717-0.676,7.654-0.676c4.188,0,6.883,0.722,8.905,2.359
			c1.684,1.252,2.695,3.177,2.695,5.729c0,3.129-2.069,5.871-5.487,7.124v0.097c3.081,0.771,6.69,3.319,6.69,8.134
			c0,2.791-1.107,4.91-2.744,6.499c-2.262,2.068-5.919,3.032-11.214,3.032c-2.889,0-5.103-0.193-6.499-0.387V451.795z
			 M-17.175,465.078h3.802c4.428,0,7.028-2.311,7.028-5.439c0-3.802-2.889-5.294-7.125-5.294c-1.925,0-3.032,0.145-3.706,0.29
			V465.078z M-17.175,480.626c0.818,0.145,2.021,0.192,3.513,0.192c4.333,0,8.328-1.588,8.328-6.306
			c0-4.428-3.802-6.257-8.375-6.257h-3.465V480.626z"/>
		<path display="inline" fill="#58595B" d="M28.883,477.448c0,2.407,0.048,4.524,0.193,6.354h-3.754L25.081,480h-0.097
			c-1.107,1.879-3.561,4.332-7.701,4.332c-3.658,0-8.038-2.021-8.038-10.203v-13.623h4.235v12.899c0,4.43,1.349,7.413,5.199,7.413
			c2.839,0,4.813-1.975,5.583-3.851c0.241-0.625,0.385-1.396,0.385-2.165v-14.297h4.236V477.448z"/>
		<path display="inline" fill="#58595B" d="M40.143,479.472c1.251,0.818,3.465,1.683,5.584,1.683c3.08,0,4.524-1.54,4.524-3.464
			c0-2.021-1.203-3.129-4.332-4.285c-4.188-1.492-6.161-3.803-6.161-6.594c0-3.754,3.032-6.835,8.039-6.835
			c2.358,0,4.428,0.674,5.728,1.444l-1.06,3.08c-0.914-0.577-2.599-1.347-4.764-1.347c-2.504,0-3.899,1.443-3.899,3.177
			c0,1.925,1.396,2.791,4.428,3.947c4.044,1.54,6.113,3.562,6.113,7.025c0,4.092-3.176,6.979-8.712,6.979
			c-2.551,0-4.909-0.625-6.546-1.589L40.143,479.472z"/>
		<path display="inline" fill="#58595B" d="M69.309,453.961c0.047,1.443-1.012,2.598-2.695,2.598c-1.492,0-2.552-1.154-2.552-2.598
			c0-1.492,1.107-2.648,2.647-2.648C68.297,451.313,69.309,452.469,69.309,453.961z M64.591,483.803v-23.297h4.236v23.297H64.591z"
			/>
		<path display="inline" fill="#58595B" d="M80.665,466.812c0-2.407-0.048-4.379-0.193-6.306h3.755l0.24,3.851h0.097
			c1.155-2.214,3.851-4.38,7.701-4.38c3.224,0,8.23,1.925,8.23,9.916v13.91H96.26v-13.43c0-3.755-1.396-6.883-5.391-6.883
			c-2.791,0-4.958,1.975-5.68,4.333c-0.192,0.528-0.289,1.251-0.289,1.973v14.007h-4.236V466.812z"/>
		<path display="inline" fill="#58595B" d="M114.547,472.925c0.095,5.729,3.754,8.087,7.99,8.087c3.032,0,4.861-0.531,6.45-1.204
			l0.722,3.032c-1.492,0.674-4.043,1.443-7.749,1.443c-7.172,0-11.457-4.717-11.457-11.743c0-7.027,4.139-12.563,10.927-12.563
			c7.604,0,9.626,6.69,9.626,10.976c0,0.866-0.097,1.54-0.145,1.973H114.547z M126.964,469.893c0.048-2.694-1.107-6.883-5.872-6.883
			c-4.284,0-6.161,3.946-6.498,6.883H126.964z"/>
		<path display="inline" fill="#58595B" d="M140.534,479.472c1.251,0.818,3.465,1.683,5.584,1.683c3.081,0,4.524-1.54,4.524-3.464
			c0-2.021-1.204-3.129-4.333-4.285c-4.188-1.492-6.161-3.803-6.161-6.594c0-3.754,3.032-6.835,8.04-6.835
			c2.357,0,4.427,0.674,5.728,1.444l-1.06,3.08c-0.914-0.577-2.599-1.347-4.765-1.347c-2.503,0-3.899,1.443-3.899,3.177
			c0,1.925,1.396,2.791,4.428,3.947c4.043,1.54,6.113,3.562,6.113,7.025c0,4.092-3.176,6.979-8.712,6.979
			c-2.55,0-4.909-0.625-6.546-1.589L140.534,479.472z"/>
		<path display="inline" fill="#58595B" d="M164.403,479.472c1.252,0.818,3.466,1.683,5.584,1.683c3.081,0,4.524-1.54,4.524-3.464
			c0-2.021-1.202-3.129-4.332-4.285c-4.188-1.492-6.162-3.803-6.162-6.594c0-3.754,3.033-6.835,8.041-6.835
			c2.356,0,4.428,0.674,5.727,1.444l-1.058,3.08c-0.917-0.577-2.603-1.347-4.766-1.347c-2.504,0-3.9,1.443-3.9,3.177
			c0,1.925,1.396,2.791,4.426,3.947c4.046,1.54,6.113,3.562,6.113,7.025c0,4.092-3.178,6.979-8.711,6.979
			c-2.55,0-4.909-0.625-6.546-1.589L164.403,479.472z"/>
		<path display="inline" fill="#58595B" d="M203.435,478.701c1.878,1.154,4.62,2.117,7.508,2.117c4.287,0,6.789-2.262,6.789-5.535
			c0-3.032-1.733-4.766-6.113-6.451c-5.297-1.876-8.565-4.62-8.565-9.193c0-5.053,4.187-8.807,10.492-8.807
			c3.321,0,5.727,0.771,7.17,1.589l-1.154,3.416c-1.062-0.577-3.225-1.54-6.16-1.54c-4.428,0-6.113,2.647-6.113,4.861
			c0,3.032,1.971,4.524,6.451,6.258c5.484,2.117,8.275,4.766,8.275,9.529c0,5.007-3.703,9.338-11.356,9.338
			c-3.129,0-6.547-0.913-8.28-2.069L203.435,478.701z"/>
		<path display="inline" fill="#58595B" d="M232.405,449.628h4.239v34.175h-4.239V449.628z"/>
		<path display="inline" fill="#58595B" d="M269.656,471.961c0,8.616-5.968,12.371-11.598,12.371
			c-6.306,0-11.168-4.621-11.168-11.984c0-7.798,5.104-12.371,11.555-12.371C265.133,459.977,269.656,464.839,269.656,471.961z
			 M251.174,472.202c0,5.102,2.936,8.952,7.078,8.952c4.041,0,7.073-3.802,7.073-9.048c0-3.947-1.975-8.952-6.977-8.952
			C253.342,463.154,251.174,467.774,251.174,472.202z"/>
		<path display="inline" fill="#58595B" d="M299.883,460.506c-0.097,1.685-0.193,3.563-0.193,6.402v13.524
			c0,5.343-1.058,8.616-3.321,10.64c-2.261,2.117-5.534,2.791-8.47,2.791c-2.791,0-5.871-0.674-7.749-1.927l1.058-3.224
			c1.54,0.961,3.949,1.828,6.836,1.828c4.332,0,7.509-2.263,7.509-8.134v-2.6h-0.097c-1.299,2.165-3.805,3.898-7.412,3.898
			c-5.779,0-9.917-4.908-9.917-11.358c0-7.895,5.151-12.371,10.492-12.371c4.046,0,6.258,2.118,7.271,4.044h0.092l0.193-3.515
			H299.883z M295.503,469.699c0-0.722-0.048-1.348-0.241-1.925c-0.772-2.455-2.839-4.476-5.92-4.476
			c-4.046,0-6.933,3.416-6.933,8.808c0,4.572,2.313,8.374,6.885,8.374c2.598,0,4.959-1.637,5.871-4.331
			c0.242-0.722,0.338-1.54,0.338-2.262V469.699z"/>
		<path display="inline" fill="#58595B" d="M324.426,483.803l-0.338-2.936h-0.145c-1.299,1.827-3.805,3.465-7.122,3.465
			c-4.718,0-7.127-3.32-7.127-6.69c0-5.632,5.008-8.713,14.008-8.664v-0.48c0-1.927-0.531-5.392-5.292-5.392
			c-2.168,0-4.433,0.674-6.069,1.733l-0.961-2.793c1.927-1.25,4.718-2.069,7.653-2.069c7.122,0,8.855,4.862,8.855,9.531v8.711
			c0,2.023,0.096,3.995,0.386,5.584H324.426z M323.799,471.913c-4.621-0.095-9.869,0.724-9.869,5.248
			c0,2.743,1.83,4.042,3.997,4.042c3.032,0,4.959-1.925,5.631-3.899c0.145-0.432,0.241-0.912,0.241-1.347V471.913z"/>
		<path display="inline" fill="#58595B" d="M339.53,466.812c0-2.407-0.044-4.379-0.188-6.306h3.752l0.241,3.851h0.097
			c1.153-2.214,3.849-4.38,7.701-4.38c3.226,0,8.232,1.925,8.232,9.916v13.91h-4.239v-13.43c0-3.755-1.396-6.883-5.389-6.883
			c-2.791,0-4.959,1.975-5.679,4.333c-0.192,0.528-0.289,1.251-0.289,1.973v14.007h-4.239V466.812z"/>
	</g>
	<g>
		<g>
			<path fill="#902A8A" d="M270.385,118.106l14.529-8.39c19.023-10.982,19.023-28.952,0-39.935l-81.335-46.956
				c-19.019-10.981-34.576-1.998-34.576,19.968v16.715C212.272,59.508,250.107,83.112,270.385,118.106z"/>
			<path fill="#C21982" d="M284.914,109.716l-14.529,8.39c9.983,17.236,15.745,37.218,15.745,58.535
				c0,21.315-5.762,41.299-15.749,58.536l14.533,8.389c19.023,10.98,34.584,1.996,34.584-19.969v-93.912
				C319.498,107.72,303.938,98.734,284.914,109.716z"/>
			<path fill="#1763AC" d="M169.003,293.767v16.715c0,21.966,15.561,30.95,34.576,19.969l81.335-46.951
				c19.019-10.981,19.023-28.953,0-39.933l-14.533-8.389C250.103,270.16,212.272,293.767,169.003,293.767z"/>
			<path fill="#F58921" d="M67.615,235.177l-14.527,8.389c-19.024,10.98-19.024,28.952,0,39.933l81.327,46.951
				c19.024,10.981,34.589,1.997,34.589-19.969v-16.715C125.729,293.767,87.895,270.16,67.615,235.177z"/>
			<path fill="#10A34A" d="M169.003,59.508V42.793c0-21.966-15.565-30.95-34.588-19.968L53.087,69.781
				c-19.024,10.983-19.024,28.953,0,39.935l14.524,8.388C87.893,83.111,125.726,59.508,169.003,59.508z"/>
			<path fill="#D4262B" d="M51.873,176.641c0-21.317,5.751-41.303,15.738-58.538l-14.524-8.388
				c-19.024-10.982-34.586-1.996-34.586,19.969v93.912c0,21.964,15.563,30.949,34.586,19.969l14.527-8.389
				C57.624,217.94,51.873,197.957,51.873,176.641z"/>
		</g>
		<path fill="#58595B" d="M76.749,176.667c0-50.924,41.431-92.353,92.35-92.353c53.332,0,99.887,46.703,91.079,107.466H108.805
			c16.889,56.022,87.573,64.199,115.75,12.745l22.095,22.091C192.473,305.328,76.749,266.021,76.749,176.667z M108.805,161.545
			h120.586C210.464,98.774,127.656,99.013,108.805,161.545z"/>
	</g>
</g>
</svg>
